# xmcd
#
# Track frame offsets: 
#        150
#        17068
#        35813
#        49689
#        63429
#        81842
#        97940
#        112100
#        130786
#        151247
#        166072
#        184073
#        201421
#        216401
#
# Disc length: 3113 seconds
#
# Revision: 2
# Processed by: cddbd v1.5.2PL0 Copyright (c) Steve Scherf et al.
# Submitted via: ExactAudioCopy v1.0b1
#
DISCID=c00c270e
DTITLE=Reba McEntire - Love Somebody (Deluxe Edition)
DYEAR=2015
DGENRE=Country
TTITLE0=Going Out Like That
TTITLE1=Enough (Featuring Jennig%r Nettles)
TTITLE2=She Got Drunk Last Night
TTITLE3=Livin' Ain't Killed Me Yet
TTITLE4=That's When I Knew
TTITLE5=I'll Go On
TTITLE6=Until They Don't Love You
TTITLE7=Promise Me Love
TTITLE8=Just Like Them Horses
TTITLE9=Love Somebody
TTITLE10=Love Land
TTITLE11=Pray For Peace
TTITLE12=Whatever Way It Hurts The Least (Bonus Track)
TTITLE13=More Than Just Her Last Name (Bonus Track)
EXTD=
EXTT0=
EXTT1=
EXTT2=
EXTT3=
EXTT4=
EXTT5=
EXTT6=
EXTT7=
EXTT8=
EXTT9=
EXTT10=
EXTT11=
EXTT12=
EXTT13=
PLAYORDER=
